<svg xmlns="http://www.w3.org/2000/svg" viewBox="0 0 64 64" width="64" height="64"><rect width="64" height="64" rx="14" fill="#2f6f62"/><g transform="translate(32 34) scale(.86) translate(-32 -34)"><polygon points="32,11 54,30 54,54 10,54 10,30" fill="#fff" stroke="#fff" stroke-width="6" stroke-linejoin="round"/><g fill="#2f6f62" transform="translate(32 42) scale(.56) translate(-32 -32)"><ellipse cx="13.5" cy="33" rx="5.2" ry="6.8" transform="rotate(-22 13.5 33)"/><ellipse cx="24" cy="19.5" rx="5.6" ry="7.8" transform="rotate(-8 24 19.5)"/><ellipse cx="40" cy="19.5" rx="5.6" ry="7.8" transform="rotate(8 40 19.5)"/><ellipse cx="50.5" cy="33" rx="5.2" ry="6.8" transform="rotate(22 50.5 33)"/><path d="M32 30c-7 0-14 7.5-14 14.5 0 5 3.5 7.5 7.5 7.5 2.5 0 4-1 6.5-1s4 1 6.5 1c4 0 7.5-2.5 7.5-7.5C46 37.500 39 30 32 30z"/></g></g></svg>
